<svg xmlns="http://www.w3.org/2000/svg" viewBox="0 0 424.8 424.8"><g id="Layer_2" data-name="Layer 2"><circle cx="212.25" cy="212.15" r="207.5" fill="#005376"/><path d="M323,237.91,297.86,105a3.82,3.82,0,0,0-3.75-3.1H130.42a3.82,3.82,0,0,0-3.75,3.1L101.53,237.84h0a.6.6,0,0,1,0,.19,4.69,4.69,0,0,0,0,.53v79.53a3.82,3.82,0,0,0,3.82,3.81H320.83c2,0,2.05-1.5,2.17-3.81.11-2,0-72.11,0-78.95A4.23,4.23,0,0,0,323,237.91Zm-6.49,78.38H107.79V242.45H316.52Z" fill="#fff"/><path d="M239,266.6h-53.4a19.75,19.75,0,0,0-19.73,19.74,3.82,3.82,0,0,0,7.63,0,12.12,12.12,0,0,1,12.1-12.11H239a12.13,12.13,0,0,1,12.1,12.09,3.82,3.82,0,1,0,7.63,0A19.76,19.76,0,0,0,239,266.6Z" fill="#fff"/></g></svg>