<svg xmlns="http://www.w3.org/2000/svg" viewBox="0 0 424.8 424.8"><g id="Layer_2" data-name="Layer 2"><circle cx="212.25" cy="212.15" r="207.5" fill="#005376"/><rect x="89.44" y="101.9" width="245.66" height="220.43" rx="17.2" fill="none" stroke="#fff" stroke-miterlimit="10" stroke-width="7"/><path d="M317.9,101.9H106.64a17.2,17.2,0,0,0-17.2,17.2v28H335.1v-28A17.2,17.2,0,0,0,317.9,101.9Z" fill="#fff"/><circle cx="303.35" cy="125.33" r="7.46" fill="#005376"/><circle cx="275.52" cy="125.33" r="7.46" fill="#005376"/><circle cx="247.69" cy="125.33" r="7.46" transform="matrix(1, -0.07, 0.07, 1, -8.26, 17.87)" fill="#005376"/><path d="M304.94,246.9h-3.17a1.6,1.6,0,0,1-2.06-1.3l-5-12a2.19,2.19,0,0,1,.37-2.41l2.24-2.22a2.11,2.11,0,0,0,0-3.15l-9.52-9.44a2.18,2.18,0,0,0-3.18,0l-2.24,2.23a1.81,1.81,0,0,1-2.43.37l-12.14-5a2,2,0,0,1-1.31-2v-3.14a2.15,2.15,0,0,0-2.24-2.23H250.58a2.16,2.16,0,0,0-2.24,2.23v3.14a1.87,1.87,0,0,1-1.31,2l-12.14,5a2.24,2.24,0,0,1-2.42-.37l-2.25-2.23a2.17,2.17,0,0,0-3.17,0l-9.53,9.44a2.13,2.13,0,0,0,0,3.15l2.24,2.22a1.77,1.77,0,0,1,.38,2.41l-5,12a2,2,0,0,1-2.05,1.3h-3.18a2.15,2.15,0,0,0-2.24,2.22v13.51a2.15,2.15,0,0,0,2.24,2.22H213a1.88,1.88,0,0,1,2.05,1.3l5,12a2.19,2.19,0,0,1-.38,2.4l-2.24,2.22a2.13,2.13,0,0,0,0,3.15l9.53,9.44a2.15,2.15,0,0,0,3.17,0l2.25-2.22a1.79,1.79,0,0,1,2.42-.37l12.14,5a2,2,0,0,1,1.31,2V303a2.15,2.15,0,0,0,2.24,2.22h13.64a2.14,2.14,0,0,0,2.24-2.22v-3.15a1.86,1.86,0,0,1,1.31-2l12.14-5a2.24,2.24,0,0,1,2.43.37l2.24,2.22a2.16,2.16,0,0,0,3.18,0l9.52-9.44a2.11,2.11,0,0,0,0-3.15L295,280.58a1.76,1.76,0,0,1-.37-2.4l5-12a2,2,0,0,1,2.06-1.3h3.17a2.15,2.15,0,0,0,2.24-2.22V249.12A2.14,2.14,0,0,0,304.94,246.9Zm-48,36.64a27.21,27.21,0,1,1,27.46-27.2A27.33,27.33,0,0,1,256.93,283.54Z" fill="#fff"/></g></svg>