<svg xmlns="http://www.w3.org/2000/svg" viewBox="0 0 424.8 424.8"><g id="Layer_2" data-name="Layer 2"><circle cx="212.25" cy="212.15" r="207.5" fill="#005376"/><path d="M195.93,174.59,308.58,287.24a16,16,0,0,1-18.26,25.53c-2.62-1.24-5.93-4.67-8-6.72L173.41,197.11a5.26,5.26,0,0,1,0-7.43l15.09-15.09A5.26,5.26,0,0,1,195.93,174.59Z" fill="#fff"/><path d="M100.87,186.48a8.47,8.47,0,0,1,7.91-2.25c.17.06.33.1.49.14a8.46,8.46,0,0,0,10.39-8.48,9,9,0,0,0-.18-1.45,8.1,8.1,0,0,0-.24-.94,8.44,8.44,0,0,1,2.29-7.68l42.89-42.88,3.55-3.56,2.2-2.2a53.65,53.65,0,0,1,58-10.31l1.09.48a7.18,7.18,0,0,1,1.64,11.37,7,7,0,0,1-2.76,1.72c-1.61-.1-3.23-.13-4.84-.08a53.47,53.47,0,0,0-34.15,13.55,6.43,6.43,0,0,0-.93.81,3.64,3.64,0,0,0-.38.4,8.43,8.43,0,0,0,.38,11.54l0,0,4.05,4a8.46,8.46,0,0,1,.16,11.79l0,0-.28.28c-.27.25-36.59,36.59-36.59,36.59l-.31.32a8.45,8.45,0,0,1-7.52,2.14,7.81,7.81,0,0,0-.95-.25,8.44,8.44,0,0,0-9.92,10.2c0,.17.09.34.14.52a8.44,8.44,0,0,1-2.1,7.73l-.31.32a8.45,8.45,0,0,1-11.79-.16h0l-21.82-21.82A8.47,8.47,0,0,1,100.87,186.48Z" fill="#fff"/><path d="M228.85,195.39l20.5,20.5a2.76,2.76,0,0,0,3.91,0l18-18c2.16-2.16,6.26-3.08,9.26-2.53a38.82,38.82,0,0,0,45.15-45.46c-.29-1.5-1.49-1.82-2.57-.74l-21.42,21.42L280,164.72,274.21,143l21.42-21.42c1.07-1.08.75-2.28-.75-2.56a38.81,38.81,0,0,0-45.46,45.14c.56,3-.37,7.11-2.52,9.26l-18.05,18A2.76,2.76,0,0,0,228.85,195.39Z" fill="#fff"/><path d="M214.73,250.51,194.23,230a2.76,2.76,0,0,0-3.91,0l-13.61,13.61c-2.15,2.16-6.2,3-9.18,2.26A38.7,38.7,0,1,0,197,278.66c-.38-3,.67-7.17,2.83-9.32l14.91-14.91A2.78,2.78,0,0,0,214.73,250.51Zm-50.18,55.26-22.23-5.95-6-22.24,16.27-16.28,22.24,6,6,22.23Z" fill="#fff"/><path d="M195.93,174.59,308.58,287.24a16,16,0,0,1-18.26,25.53c-2.62-1.24-5.93-4.67-8-6.72L173.41,197.11a5.26,5.26,0,0,1,0-7.43l15.09-15.09A5.26,5.26,0,0,1,195.93,174.59Z" fill="#fff"/><path d="M100.87,186.48a8.47,8.47,0,0,1,7.91-2.25c.17.06.33.1.49.14a8.46,8.46,0,0,0,10.39-8.48,9,9,0,0,0-.18-1.45,8.1,8.1,0,0,0-.24-.94,8.44,8.44,0,0,1,2.29-7.68l42.89-42.88,3.55-3.56,2.2-2.2a53.65,53.65,0,0,1,58-10.31l1.09.48a7.18,7.18,0,0,1,1.64,11.37,7,7,0,0,1-2.76,1.72c-1.61-.1-3.23-.13-4.84-.08a53.47,53.47,0,0,0-34.15,13.55,6.43,6.43,0,0,0-.93.81,3.64,3.64,0,0,0-.38.4,8.43,8.43,0,0,0,.38,11.54l0,0,4.05,4a8.46,8.46,0,0,1,.16,11.79l0,0-.28.28c-.27.25-36.59,36.59-36.59,36.59l-.31.32a8.45,8.45,0,0,1-7.52,2.14,7.81,7.81,0,0,0-.95-.25,8.44,8.44,0,0,0-9.92,10.2c0,.17.09.34.14.52a8.44,8.44,0,0,1-2.1,7.73l-.31.32a8.45,8.45,0,0,1-11.79-.16h0l-21.82-21.82A8.47,8.47,0,0,1,100.87,186.48Z" fill="#fff"/><path d="M228.85,195.39l20.5,20.5a2.76,2.76,0,0,0,3.91,0l18-18c2.16-2.16,6.26-3.08,9.26-2.53a38.82,38.82,0,0,0,45.15-45.46c-.29-1.5-1.49-1.82-2.57-.74l-21.42,21.42L280,164.72,274.21,143l21.42-21.42c1.07-1.08.75-2.28-.75-2.56a38.81,38.81,0,0,0-45.46,45.14c.56,3-.37,7.11-2.52,9.26l-18.05,18A2.76,2.76,0,0,0,228.85,195.39Z" fill="#fff"/><path d="M214.73,250.51,194.23,230a2.76,2.76,0,0,0-3.91,0l-13.61,13.61c-2.15,2.16-6.2,3-9.18,2.26A38.7,38.7,0,1,0,197,278.66c-.38-3,.67-7.17,2.83-9.32l14.91-14.91A2.78,2.78,0,0,0,214.73,250.51Zm-50.18,55.26-22.23-5.95-6-22.24,16.27-16.28,22.24,6,6,22.23Z" fill="#fff"/></g></svg>