<svg xmlns="http://www.w3.org/2000/svg" viewBox="0 0 424.8 424.8"><g id="Layer_2" data-name="Layer 2"><circle cx="212.45" cy="212.15" r="207.5" fill="#005376"/><rect x="86.9" y="111.9" width="254" height="167" fill="#005376"/><path d="M332.7,100.87H92.5A17.16,17.16,0,0,0,75.34,118V272.45A17.16,17.16,0,0,0,92.5,289.61h94.36v9.21c-25.14,1.27-42.89,4.35-42.89,7.95v8.58c0,4.74,30.73,8.58,68.63,8.58s68.63-3.84,68.63-8.58v-8.58c0-3.6-17.75-6.68-42.89-7.95v-9.21H332.7a17.16,17.16,0,0,0,17.16-17.16V118A17.16,17.16,0,0,0,332.7,100.87Zm0,169.05a2.54,2.54,0,0,1-2.53,2.53H95a2.54,2.54,0,0,1-2.53-2.53V120.56A2.54,2.54,0,0,1,95,118H330.17a2.54,2.54,0,0,1,2.53,2.53Z" fill="#fff"/><path d="M249,187.78a11.15,11.15,0,0,0-10.87,8.69l-14.35-.09a14,14,0,0,0-10.29-11.23l1.38-17.08a11.13,11.13,0,1,0-4.71-.38l-1.38,17.08a13.82,13.82,0,0,0-8.49,3.92l-10.94-7.91a11,11,0,0,0,.93-4.45,11.12,11.12,0,1,0-3.7,8.29l10.93,7.9a13.93,13.93,0,0,0,.32,12.87L182.1,218a9.15,9.15,0,1,0,3.73,7.37,9,9,0,0,0-.77-3.67l15.71-12.6a13.9,13.9,0,0,0,9.24,3.51h.21l2,10.9a11.14,11.14,0,1,0,4.66-.87l-2-10.9a13.93,13.93,0,0,0,8.86-10.6l14.35.1A11.14,11.14,0,1,0,249,187.78Z" fill="#fff"/></g></svg>