<svg xmlns="http://www.w3.org/2000/svg" viewBox="0 0 424.8 424.8"><g id="Layer_2" data-name="Layer 2"><circle cx="211.85" cy="212.15" r="207.5" fill="#005376"/><path d="M226,199.48a13.6,13.6,0,1,0-21.67,10.92l-2.13,22.21h20.41l-2.14-22.21A13.54,13.54,0,0,0,226,199.48Z" fill="#fff"/><path d="M250.76,151.75V127.28A28.75,28.75,0,0,0,222,98.56H202.76A28.75,28.75,0,0,0,174,127.28v24.47h14.57V127.28a14.17,14.17,0,0,1,14.15-14.15H222a14.17,14.17,0,0,1,14.15,14.15v24.47Z" fill="#fff"/><path d="M274.55,246.11V175.22a14.74,14.74,0,0,0-14.71-14.72H165a14.74,14.74,0,0,0-14.71,14.72v70.89a17,17,0,0,0,17,17h90.28A17,17,0,0,0,274.55,246.11ZM160,175.22a5,5,0,0,1,5-5h94.88a5,5,0,0,1,5,5v70.36H160Z" fill="#fff"/><path d="M153.19,266.19,148,261l-18.11,18.1a3.66,3.66,0,0,0-1.06,2.58v11.77a9.2,9.2,0,0,0-2.69,1.82,9,9,0,1,0,12.66,0,8.76,8.76,0,0,0-2.69-1.82V283.23Z" fill="#fff"/><path d="M129.93,144.48,148,162.58l5.15-5.15-17-17V130.13a8.59,8.59,0,0,0,2.69-1.82,9,9,0,1,0-12.66,0,8.83,8.83,0,0,0,2.69,1.82V141.9A3.65,3.65,0,0,0,129.93,144.48Z" fill="#fff"/><path d="M292.06,144.75V132.89a10,10,0,1,0-7.29-.18v10.53l-11.33,11.33,5.15,5.16L291,147.32A3.65,3.65,0,0,0,292.06,144.75Z" fill="#fff"/><path d="M291,276.3l-12.4-12.4-5.15,5.15,11.33,11.33v10.53a10.11,10.11,0,1,0,7.29-.18V278.88A3.66,3.66,0,0,0,291,276.3Z" fill="#fff"/><path d="M312.62,202.91a8.83,8.83,0,0,0-1.82,2.69H282.27v7.29H310.8a8.83,8.83,0,0,0,1.82,2.69,9,9,0,1,0,0-12.67Z" fill="#fff"/><path d="M142.54,205.6H114a8.83,8.83,0,0,0-1.82-2.69,9,9,0,1,0,0,12.67,8.83,8.83,0,0,0,1.82-2.69h28.54Z" fill="#fff"/><path d="M209.68,274.05v35.08A8.84,8.84,0,0,0,207,311a9,9,0,1,0,10-1.82V274.05Z" fill="#fff"/></g></svg>