<svg xmlns="http://www.w3.org/2000/svg" viewBox="0 0 424.8 424.8"><g id="Layer_2" data-name="Layer 2"><circle cx="212.25" cy="212.15" r="207.5" fill="#005376"/><rect x="86.7" y="123.9" width="254" height="167" fill="#005376"/><path d="M332.5,112.87H92.3A17.16,17.16,0,0,0,75.14,130V284.45A17.16,17.16,0,0,0,92.3,301.61h94.36v9.21c-25.14,1.27-42.89,4.35-42.89,7.95v8.58c0,4.74,30.73,8.58,68.63,8.58S281,332.09,281,327.35v-8.58c0-3.6-17.75-6.68-42.89-7.95v-9.21H332.5a17.16,17.16,0,0,0,17.16-17.16V130A17.16,17.16,0,0,0,332.5,112.87Zm0,169.05a2.54,2.54,0,0,1-2.53,2.53H94.83a2.54,2.54,0,0,1-2.53-2.53V132.56A2.54,2.54,0,0,1,94.83,130H330a2.54,2.54,0,0,1,2.53,2.53ZM285.32,155.77A21.34,21.34,0,0,0,265.39,185l-23.74,23.74a20.77,20.77,0,0,0-15.6,0L210.88,193.6a21.44,21.44,0,1,0-39.86,0l-23.74,23.74a21.61,21.61,0,1,0,12.13,12.13l23.74-23.74a20.9,20.9,0,0,0,15.6,0l15.17,15.16a21.44,21.44,0,1,0,39.86,0l23.74-23.74a21.43,21.43,0,1,0,7.8-41.38ZM139.48,245.85a8.58,8.58,0,1,1,8.58-8.58A8.59,8.59,0,0,1,139.48,245.85ZM191,194.37a8.58,8.58,0,1,1,8.58-8.57A8.59,8.59,0,0,1,191,194.37Zm42.9,42.9a8.58,8.58,0,1,1,8.58-8.58A8.59,8.59,0,0,1,233.85,237.27Zm51.47-51.47a8.58,8.58,0,1,1,8.58-8.58A8.6,8.6,0,0,1,285.32,185.8Z" fill="#fff"/></g></svg>