<svg xmlns="http://www.w3.org/2000/svg" viewBox="0 0 424.8 424.8"><g id="Layer_2" data-name="Layer 2"><circle cx="212.25" cy="212.15" r="207.5" fill="#005376"/><path d="M239.87,165.56l-14.24-2.32a61.21,61.21,0,0,0-6.5-15.61l8.46-11.75a6.84,6.84,0,0,0-.72-8.84L217.79,118a6.81,6.81,0,0,0-8.85-.72l-11.75,8.46a60.53,60.53,0,0,0-15.61-6.49L179.27,105a6.9,6.9,0,0,0-6.83-5.8h-16a6.84,6.84,0,0,0-6.77,5.76l-2.33,14.26a60.68,60.68,0,0,0-15.61,6.49L120,117.27a6.89,6.89,0,0,0-8.92.72l-9,9a6.88,6.88,0,0,0-.74,8.93l8.44,11.71a60.77,60.77,0,0,0-6.5,15.62L89,165.56a6.84,6.84,0,0,0-5.76,6.78v12.83A6.84,6.84,0,0,0,89,191.94l14.25,2.32a60.85,60.85,0,0,0,6.5,15.61l-8.46,11.75a6.84,6.84,0,0,0,.71,8.85l9.08,9.07a6.84,6.84,0,0,0,8.86.72l11.74-8.45a61.18,61.18,0,0,0,15.61,6.49l2.32,14.21a6.88,6.88,0,0,0,6.82,5.8h16a6.85,6.85,0,0,0,6.78-5.76l2.32-14.25a61,61,0,0,0,15.61-6.49l11.71,8.42a6.88,6.88,0,0,0,8.92-.72l9-9a6.88,6.88,0,0,0,.73-8.93l-8.43-11.71a61.06,61.06,0,0,0,6.5-15.61l14.24-2.32a6.84,6.84,0,0,0,5.76-6.77V172.34A6.84,6.84,0,0,0,239.87,165.56Zm-75.42,45.07a31.88,31.88,0,1,1,31.87-31.88A31.91,31.91,0,0,1,164.45,210.63Z" fill="#fff"/><path d="M344.91,242.32l-19.34-47.84-2-9.68c-.25-44-36.35-78.37-82.23-78.37a104.5,104.5,0,0,0-21.66,2.09,16,16,0,0,1,4.46,3.11l9.08,9.08a15.78,15.78,0,0,1,1.65,20.4l-5.21,7.23a69.06,69.06,0,0,1,2.9,7l8.77,1.43a15.74,15.74,0,0,1,13.27,15.61v12.83a15.73,15.73,0,0,1-13.27,15.6l-8.77,1.43a70.37,70.37,0,0,1-2.89,7l5.17,7.19a15.78,15.78,0,0,1-1.69,20.51l-9,9a15.81,15.81,0,0,1-20.48,1.65l-7.19-5.17a72.33,72.33,0,0,1-6.95,2.9L188.09,254a15.78,15.78,0,0,1-5.7,9.76,286.22,286.22,0,0,1,7.18,62.94v4.48h89.86V297.55h21a18.22,18.22,0,0,0,18.2-18.21V257.28H334.8a10.89,10.89,0,0,0,10.11-15Z" fill="#fff"/></g></svg>