<svg xmlns="http://www.w3.org/2000/svg" viewBox="0 0 424.8 424.8"><g id="Layer_2" data-name="Layer 2"><circle cx="212.25" cy="212.15" r="207.5" fill="#005376"/><path d="M338.49,164.48a4.15,4.15,0,0,0-3.54-3.26l-2.31-.34c-2.4-3.47-9.82-17,4.45-34.77a4.07,4.07,0,0,0,1.4-3.87A4.16,4.16,0,0,0,335,119L211.87,102.82a15.9,15.9,0,0,0-10,2c-17.91,10.31-82.06,47.29-100.48,58L97.52,165a27,27,0,0,0-7.21,7.57,31.26,31.26,0,0,0-4.9,16.9,32.15,32.15,0,0,0,1.67,10.06,29.07,29.07,0,0,0,6.55,11,27.57,27.57,0,0,0-3.32,4.22,31.24,31.24,0,0,0-4.9,16.9,32.24,32.24,0,0,0,1.67,10.06,29.14,29.14,0,0,0,6.55,11A28,28,0,0,0,90.31,257a31.3,31.3,0,0,0-4.9,16.91,32.13,32.13,0,0,0,1.67,10c2.83,8.58,9.11,15.15,17,17.61l6,1.06L218.1,321.87a15.78,15.78,0,0,0,11.06-2.11l107.45-66.45a4.18,4.18,0,0,0-1.66-7.7l-2.31-.33c-2.39-3.45-9.69-16.76,4.14-34.36a4.13,4.13,0,0,0-1.83-7.5l-2.31-.34c-2.39-3.45-9.69-16.76,4.14-34.36A4.15,4.15,0,0,0,338.49,164.48ZM110.12,176.14l4.07.72,20.47,3.65,81.76,14.56a26.86,26.86,0,0,0-1.34,27.29L107.53,203.21c-4.43-1.8-7.77-7.1-7.77-13.24C99.76,182.7,104.45,176.56,110.12,176.14Zm0,42.19,4.07.73,20.47,3.64,81.76,14.57a27.79,27.79,0,0,0-4.06,10.33,28.08,28.08,0,0,0,2.72,17L107.53,245.41c-4.43-1.8-7.77-7.1-7.77-13.24C99.76,224.89,104.45,218.75,110.12,218.33ZM215,306.74,107.53,287.6c-4.43-1.79-7.77-7.09-7.77-13.23,0-7.28,4.69-13.42,10.36-13.84l4.07.73,20.47,3.64,82.19,14.64a26.77,26.77,0,0,0-1.83,27.2ZM203.4,136.17a1.64,1.64,0,0,1-.56-3l17.55-10a6.13,6.13,0,0,1,3.91-.74l53.54,7a1.65,1.65,0,0,1,.57,3.06L260.07,143a6.05,6.05,0,0,1-4,.74Zm21.26,170.74c-10.53-16.87,2.87-28.17,4.5-29.35l93-57.49a34.17,34.17,0,0,0,1.87,27S226.16,306.52,224.66,306.91Zm.16-42.24c-11.1-17.11,2.69-28.11,4.34-29.31l93-57.48a34.15,34.15,0,0,0,1.87,27S226.26,264.27,224.82,264.67Zm0-42.2c-11.1-17.11,2.69-28,4.34-29.22l93-57.61A34.18,34.18,0,0,0,324,162.69S226.26,222.08,224.82,222.47Z" fill="#fff"/></g></svg>