<svg xmlns="http://www.w3.org/2000/svg" viewBox="0 0 424.8 424.8"><g id="Layer_2" data-name="Layer 2"><circle cx="211.85" cy="212.15" r="207.5" fill="#005376"/><circle cx="212.22" cy="207.01" r="102.25" fill="none" stroke="#fff" stroke-miterlimit="10" stroke-width="12"/><rect x="179.91" y="89.83" width="64.63" height="42.49" fill="#005376"/><path d="M242.46,87H181.34A4.37,4.37,0,0,0,177,91.39v39.29a4.37,4.37,0,0,0,4.37,4.37h24v2.34c-6.4.32-10.91,1.11-10.91,2v2.19c0,1.2,7.82,2.18,17.46,2.18s17.46-1,17.46-2.18v-2.19c0-.91-4.51-1.7-10.91-2v-2.34h24a4.37,4.37,0,0,0,4.37-4.37V91.39A4.37,4.37,0,0,0,242.46,87Zm0,43a.64.64,0,0,1-.64.64H182a.64.64,0,0,1-.64-.64V92a.64.64,0,0,1,.64-.64h59.84a.64.64,0,0,1,.64.64Z" fill="#fff"/><rect x="179.91" y="283.83" width="64.63" height="42.49" fill="#005376"/><path d="M242.46,281H181.34a4.37,4.37,0,0,0-4.37,4.37v39.29a4.37,4.37,0,0,0,4.37,4.37h24v2.34c-6.4.32-10.91,1.11-10.91,2v2.19c0,1.2,7.82,2.18,17.46,2.18s17.46-1,17.46-2.18v-2.19c0-.91-4.51-1.7-10.91-2v-2.34h24a4.37,4.37,0,0,0,4.37-4.37V285.39A4.37,4.37,0,0,0,242.46,281Zm0,43a.64.64,0,0,1-.64.64H182a.64.64,0,0,1-.64-.64V286a.64.64,0,0,1,.64-.64h59.84a.64.64,0,0,1,.64.64Z" fill="#fff"/><rect x="79.91" y="174.83" width="64.63" height="42.49" fill="#005376"/><path d="M142.46,172H81.34A4.37,4.37,0,0,0,77,176.39v39.29a4.37,4.37,0,0,0,4.37,4.37h24v2.34c-6.4.32-10.91,1.11-10.91,2v2.19c0,1.2,7.82,2.18,17.46,2.18s17.46-1,17.46-2.18v-2.19c0-.91-4.51-1.7-10.91-2v-2.34h24a4.37,4.37,0,0,0,4.37-4.37V176.39A4.37,4.37,0,0,0,142.46,172Zm0,43a.64.64,0,0,1-.64.64H82a.64.64,0,0,1-.64-.64V177a.64.64,0,0,1,.64-.64h59.84a.64.64,0,0,1,.64.64Z" fill="#fff"/><rect x="280.91" y="174.83" width="64.63" height="42.49" fill="#005376"/><path d="M343.46,172H282.34a4.37,4.37,0,0,0-4.37,4.37v39.29a4.37,4.37,0,0,0,4.37,4.37h24v2.34c-6.4.32-10.91,1.11-10.91,2v2.19c0,1.2,7.82,2.18,17.46,2.18s17.46-1,17.46-2.18v-2.19c0-.91-4.51-1.7-10.91-2v-2.34h24a4.37,4.37,0,0,0,4.37-4.37V176.39A4.37,4.37,0,0,0,343.46,172Zm0,43a.64.64,0,0,1-.64.64H283a.64.64,0,0,1-.64-.64V177a.64.64,0,0,1,.64-.64h59.84a.64.64,0,0,1,.64.64Z" fill="#fff"/><path d="M212.44,245.25a32.54,32.54,0,1,1,11.33-63,3.61,3.61,0,1,1-2.52,6.77,25.31,25.31,0,1,0,16.49,23.73,3.62,3.62,0,0,1,7.23,0A32.57,32.57,0,0,1,212.44,245.25Z" fill="#fff"/><path d="M212.44,227.89a3.6,3.6,0,0,1-2.45-.95l-12.65-11.61a3.61,3.61,0,1,1,4.89-5.32l9.64,8.84,26.55-37.16a3.61,3.61,0,0,1,5.88,4.2l-28.92,40.49a3.6,3.6,0,0,1-2.57,1.49A2.3,2.3,0,0,1,212.44,227.89Z" fill="#fff"/></g></svg>