<svg xmlns="http://www.w3.org/2000/svg" viewBox="0 0 424.8 424.8"><g id="Layer_2" data-name="Layer 2"><circle cx="212.25" cy="212.15" r="207.5" fill="#005376"/><rect x="209.26" y="163.41" width="6.28" height="18.85" fill="#fff"/><path d="M291,198h-6.28v-9.43a3.15,3.15,0,0,0-3.14-3.14H143.27a3.15,3.15,0,0,0-3.14,3.14V198h-6.28v-9.43a9.44,9.44,0,0,1,9.42-9.43H281.53a9.44,9.44,0,0,1,9.42,9.43Z" fill="#fff"/><rect x="162.13" y="216.83" width="28.28" height="6.28" fill="#fff"/><rect x="234.39" y="216.83" width="28.28" height="6.28" fill="#fff"/><path d="M162.13,251.39H111.85a3.15,3.15,0,0,1-3.14-3.14V198a3.15,3.15,0,0,1,3.14-3.14h50.28a3.15,3.15,0,0,1,3.14,3.14v50.28A3.15,3.15,0,0,1,162.13,251.39ZM115,245.11h44v-44H115Z" fill="#fff"/><path d="M212.4,248.25a3.14,3.14,0,0,1-2.22-.92L185,222.19a3.13,3.13,0,0,1,0-4.44l25.14-25.14a3.13,3.13,0,0,1,4.44,0l25.14,25.14a3.13,3.13,0,0,1,0,4.44l-25.14,25.14A3.14,3.14,0,0,1,212.4,248.25ZM191.71,220l20.69,20.69L233.09,220l-20.69-20.7Z" fill="#fff"/><rect x="199.83" y="292.24" width="25.14" height="6.28" fill="#fff"/><rect x="284.67" y="248.25" width="6.28" height="28.28" fill="#fff"/><path d="M313,251.39H262.67a3.15,3.15,0,0,1-3.14-3.14V198a3.15,3.15,0,0,1,3.14-3.14H313a3.15,3.15,0,0,1,3.14,3.14v50.28A3.15,3.15,0,0,1,313,251.39Zm-47.13-6.28h44v-44h-44Z" fill="#fff"/><path d="M181,317.37H130.7a22,22,0,0,1,0-44H181a22,22,0,0,1,0,44Zm-50.28-37.7a15.71,15.71,0,0,0,0,31.42H181a15.71,15.71,0,1,0,0-31.42Z" fill="#fff"/><path d="M294.1,317.37H243.82a22,22,0,0,1,0-44H294.1a22,22,0,0,1,0,44Zm-50.28-37.7a15.71,15.71,0,0,0,0,31.42H294.1a15.71,15.71,0,0,0,0-31.42Z" fill="#fff"/><path d="M212.4,166.55A34.56,34.56,0,1,1,247,132,34.59,34.59,0,0,1,212.4,166.55Zm0-62.84A28.28,28.28,0,1,0,240.68,132,28.32,28.32,0,0,0,212.4,103.71Z" fill="#fff"/><path d="M211.93,151.9a19.87,19.87,0,1,1,6.92-38.5,2.21,2.21,0,0,1-1.54,4.14A15.45,15.45,0,1,0,227.39,132a2.21,2.21,0,1,1,4.41,0A19.89,19.89,0,0,1,211.93,151.9Z" fill="#fff"/><path d="M211.93,141.3a2.18,2.18,0,0,1-1.49-.58l-7.73-7.09a2.21,2.21,0,1,1,3-3.25l5.89,5.4,16.21-22.7a2.21,2.21,0,0,1,3.59,2.57l-17.66,24.73a2.21,2.21,0,0,1-1.57.91Z" fill="#fff"/></g></svg>