<svg xmlns="http://www.w3.org/2000/svg" viewBox="0 0 424.8 424.8"><g id="Layer_2" data-name="Layer 2"><circle cx="212.25" cy="212.15" r="207.5" fill="#005376"/><path d="M298.14,151.46v34.29c0,6.25-4.17,12.11-11.47,17.15-14.83,10.25-42.54,17.15-74.27,17.15s-59.44-6.9-74.27-17.15c-7.3-5-11.47-10.9-11.47-17.15V151.46c0,6.25,4.17,12.1,11.47,17.15,14.82,10.25,42.53,17.14,74.27,17.14s59.45-6.89,74.27-17.14C294,163.56,298.14,157.71,298.14,151.46Z" fill="#fff"/><path d="M298.14,203.32v34.3c0,6.24-4.17,12.1-11.47,17.15-14.83,10.25-42.54,17.15-74.27,17.15S153,265,138.13,254.77c-7.3-5.05-11.47-10.91-11.47-17.15v-34.3c0,6.25,4.17,12.11,11.47,17.15,14.82,10.25,42.53,17.15,74.27,17.15s59.45-6.9,74.27-17.15C294,215.43,298.14,209.57,298.14,203.32Z" fill="#fff"/><path d="M298.14,255.19v34.3c0,6.24-4.17,12.1-11.47,17.14-14.83,10.26-42.54,17.15-74.27,17.15s-59.44-6.89-74.27-17.15c-7.3-5-11.47-10.9-11.47-17.14v-34.3c0,6.25,4.17,12.11,11.47,17.15,14.82,10.25,42.53,17.15,74.27,17.15s59.45-6.9,74.27-17.15C294,267.3,298.14,261.44,298.14,255.19Z" fill="#fff"/><ellipse cx="212.4" cy="135.31" rx="85.74" ry="34.3" fill="#fff"/></g></svg>