<svg xmlns="http://www.w3.org/2000/svg" viewBox="0 0 424.8 424.8"><g id="Layer_2" data-name="Layer 2"><circle cx="212.25" cy="212.15" r="207.5" fill="#005376"/><path d="M276.38,106.24a4.78,4.78,0,0,0-4.78-4.78H153.11a4.78,4.78,0,0,0-4.78,4.78v23.7a4.78,4.78,0,0,0,4.78,4.78H271.6a4.78,4.78,0,0,0,4.78-4.78v-23.7Z" fill="#fff"/><path d="M183,158.41a7.3,7.3,0,1,1-7.29,7.3,7.3,7.3,0,0,1,7.29-7.3Zm29.39,0a7.3,7.3,0,1,1-7.29,7.3,7.3,7.3,0,0,1,7.29-7.3Zm29.4,0a7.3,7.3,0,1,1-7.3,7.3,7.3,7.3,0,0,1,7.3-7.3Zm-88.64,28.72H271.6a4.79,4.79,0,0,0,4.78-4.79V149.08a4.78,4.78,0,0,0-4.78-4.79H153.11a4.78,4.78,0,0,0-4.78,4.79v33.26a4.79,4.79,0,0,0,4.78,4.79Z" fill="#fff"/><path d="M111,293.62H158.4v20.15H111V293.62Zm-9.57,24.94a4.78,4.78,0,0,0,4.79,4.78h56.94a4.78,4.78,0,0,0,4.78-4.78V288.83a4.78,4.78,0,0,0-4.78-4.78H106.25a4.78,4.78,0,0,0-4.79,4.78v29.73Z" fill="#fff"/><path d="M236,313.77H188.67V293.62H236v20.15Zm9.57,4.79V288.83a4.78,4.78,0,0,0-4.79-4.78H183.88a4.78,4.78,0,0,0-4.78,4.78v29.73a4.78,4.78,0,0,0,4.78,4.78h56.94a4.78,4.78,0,0,0,4.79-4.78Z" fill="#fff"/><path d="M266.4,293.62h47.37v20.15H266.4V293.62Zm-4.79,29.72h56.94a4.78,4.78,0,0,0,4.79-4.78V288.83a4.78,4.78,0,0,0-4.79-4.78H261.61a4.78,4.78,0,0,0-4.78,4.78v29.73a4.78,4.78,0,0,0,4.78,4.78Z" fill="#fff"/><path d="M125.91,266.35v8.13h9.57v-3.35h40.19a4.78,4.78,0,0,0,4.78-4.78V239.53h-9.57v22H130.69a4.78,4.78,0,0,0-4.78,4.79Z" fill="#fff"/><path d="M258.68,230H271.6a4.79,4.79,0,0,0,4.78-4.79V201.48a4.78,4.78,0,0,0-4.78-4.78H153.11a4.78,4.78,0,0,0-4.78,4.78v23.69a4.79,4.79,0,0,0,4.78,4.79H258.68Z" fill="#fff"/><path d="M253.89,271.13h40.2v3.35h9.57v-8.13a4.79,4.79,0,0,0-4.79-4.79H258.68v-22h-9.57v26.82a4.78,4.78,0,0,0,4.78,4.78Z" fill="#fff"/><polygon points="217.14 239.53 207.57 239.53 207.57 274.48 217.14 274.48 217.14 239.53 217.14 239.53" fill="#fff"/></g></svg>