<svg xmlns="http://www.w3.org/2000/svg" viewBox="0 0 424.8 424.8"><g id="Layer_2" data-name="Layer 2"><circle cx="212.45" cy="212.15" r="207.5" fill="#005376"/><rect x="155.88" y="156.28" width="112.24" height="112.24" rx="4.98" fill="#fff"/><path d="M318.72,203.29a6,6,0,0,0,0-11.94H300.81V173.13h17.91a6,6,0,0,0,0-11.94H300.81V131.55a8,8,0,0,0-8-8H263.21V105.68a6,6,0,1,0-11.94,0v17.91H233.05V105.68a6,6,0,1,0-11.94,0v17.91H202.89V105.68a6,6,0,1,0-11.94,0v17.91H172.73V105.68a6,6,0,1,0-11.94,0v17.91H131.15a8,8,0,0,0-8,8v29.64H105.28a6,6,0,0,0,0,11.94h17.91v18.22H105.28a6,6,0,0,0,0,11.94h17.91v18.22H105.28a6,6,0,0,0,0,11.94h17.91v18.22H105.28a6,6,0,1,0,0,11.94h17.91v29.64a8,8,0,0,0,8,8h29.64v17.91a6,6,0,0,0,11.94,0V301.21H191v17.91a6,6,0,0,0,11.94,0V301.21h18.22v17.91a6,6,0,0,0,11.94,0V301.21h18.22v17.91a6,6,0,1,0,11.94,0V301.21h29.64a8,8,0,0,0,8-8V263.61h17.91a6,6,0,0,0,0-11.94H300.81V233.45h17.91a6,6,0,0,0,0-11.94H300.81V203.29Zm-33.83,82H139.11V139.51H284.89Z" fill="#fff"/><path d="M224.23,226.15a2.42,2.42,0,0,0-2.78,1.93c-2.07,12.18-6.12,18.56-9,18.56-2.63,0-6-5.2-8.15-14.19A106.91,106.91,0,0,0,220,225.12c22.81-12.77,30.93-25.86,27.17-32.18-3.17-5.33-13-5.47-26.95-.38a2.32,2.32,0,0,0-1.41,3,2.43,2.43,0,0,0,3.11,1.37c11.9-4.33,19.61-4.12,21.07-1.66,2.1,3.53-6.75,15.33-25.41,25.78a99.08,99.08,0,0,1-14.26,6.63,98,98,0,0,1,0-30.58,99.08,99.08,0,0,1,14.26,6.63c3.08,1.72,6,3.56,8.79,5.48a2.46,2.46,0,0,0,3.37-.53,2.29,2.29,0,0,0-.56-3.27c-2.88-2-6-3.94-9.18-5.74a108.1,108.1,0,0,0-15.72-7.34c2.16-9,5.52-14.18,8.15-14.18,1.59,0,4.28,2.31,6.6,8.81a2.42,2.42,0,0,0,3.07,1.45,2.32,2.32,0,0,0,1.49-3c-3.53-9.88-8-12-11.16-12-5,0-10,5.9-12.85,17.35-11.61-3.34-19.4-2.08-21.89,2.11-3.13,5.25,1.51,13.46,12.73,22.52a2.5,2.5,0,0,0,1.55.54,2.41,2.41,0,0,0,1.85-.85,2.29,2.29,0,0,0-.31-3.3c-9.54-7.69-13.08-14.16-11.64-16.57,1.31-2.2,7.63-2.43,16.73.25a109.28,109.28,0,0,0,0,33.74c-9.1,2.68-15.42,2.45-16.73.25-.93-1.56.36-4.83,3.36-8.54a2.3,2.3,0,0,0-.41-3.29,2.47,2.47,0,0,0-3.39.4c-5.69,7-5.17,11.37-3.74,13.77,1.52,2.56,5,4,10.15,4A43,43,0,0,0,199.55,234c2.82,11.43,7.85,17.33,12.85,17.33,6.35,0,11.38-8.19,13.82-22.47A2.37,2.37,0,0,0,224.23,226.15Z" fill="#005376"/><path d="M241.38,215.77a2.46,2.46,0,0,0-3.41-.17,2.29,2.29,0,0,0-.17,3.31c5.16,5.55,6,9.18,5.16,10.61s-4.23,2.45-11.26,1.12a2.42,2.42,0,0,0-2.84,1.85,2.35,2.35,0,0,0,1.91,2.75,35.91,35.91,0,0,0,6.65.7c5.86,0,8.52-2.07,9.72-4.08C249.49,227.91,247.5,222.35,241.38,215.77Z" fill="#005376"/><path d="M209.69,212.4a2.71,2.71,0,1,0,2.71-2.63A2.67,2.67,0,0,0,209.69,212.4Z" fill="#005376"/></g></svg>