<svg xmlns="http://www.w3.org/2000/svg" viewBox="0 0 424.8 424.8"><g id="Layer_2" data-name="Layer 2"><circle cx="212.25" cy="212.15" r="207.5" fill="#005376"/><rect x="86.7" y="111.9" width="254" height="167" fill="#005376"/><path d="M332.5,100.87H92.3A17.16,17.16,0,0,0,75.14,118V272.45A17.16,17.16,0,0,0,92.3,289.61h94.36v9.21c-25.14,1.27-42.89,4.35-42.89,7.95v8.58c0,4.74,30.73,8.58,68.63,8.58S281,320.09,281,315.35v-8.58c0-3.6-17.75-6.68-42.89-7.95v-9.21H332.5a17.16,17.16,0,0,0,17.16-17.16V118A17.16,17.16,0,0,0,332.5,100.87Zm0,169.05a2.54,2.54,0,0,1-2.53,2.53H94.83a2.54,2.54,0,0,1-2.53-2.53V120.56A2.54,2.54,0,0,1,94.83,118H330a2.54,2.54,0,0,1,2.53,2.53Z" fill="#fff"/><path d="M259.94,186.42h-3.18a1.59,1.59,0,0,1-2-1.29l-5-12a2.18,2.18,0,0,1,.37-2.41l2.24-2.22a2.13,2.13,0,0,0,0-3.15l-9.53-9.44a2.17,2.17,0,0,0-3.17,0l-2.24,2.22a1.8,1.8,0,0,1-2.43.37l-12.14-5a2,2,0,0,1-1.31-2v-3.15a2.15,2.15,0,0,0-2.24-2.22H205.58a2.15,2.15,0,0,0-2.24,2.22v3.15a1.87,1.87,0,0,1-1.31,2l-12.14,5a2.24,2.24,0,0,1-2.43-.37l-2.24-2.22a2.17,2.17,0,0,0-3.17,0l-9.53,9.44a2.13,2.13,0,0,0,0,3.15l2.24,2.22a1.76,1.76,0,0,1,.37,2.41l-5,12a2,2,0,0,1-2.05,1.29h-3.18a2.15,2.15,0,0,0-2.24,2.22v13.52a2.15,2.15,0,0,0,2.24,2.22H168a1.89,1.89,0,0,1,2.05,1.29l5,12a2.18,2.18,0,0,1-.37,2.41l-2.24,2.22a2.13,2.13,0,0,0,0,3.15l9.53,9.44a2.17,2.17,0,0,0,3.17,0l2.24-2.22a1.8,1.8,0,0,1,2.43-.37l12.14,5a2,2,0,0,1,1.31,2v3.15a2.15,2.15,0,0,0,2.24,2.22h13.64a2.15,2.15,0,0,0,2.24-2.22v-3.15a1.87,1.87,0,0,1,1.31-2l12.14-5a2.24,2.24,0,0,1,2.43.37l2.24,2.22a2.17,2.17,0,0,0,3.17,0l9.53-9.44a2.13,2.13,0,0,0,0-3.15L250,220.11a1.76,1.76,0,0,1-.37-2.41l5-12a2,2,0,0,1,2-1.29h3.18a2.15,2.15,0,0,0,2.24-2.22V188.64A2.15,2.15,0,0,0,259.94,186.42Zm-48,36.65a27.21,27.21,0,1,1,27.46-27.21A27.34,27.34,0,0,1,211.93,223.07Z" fill="#fff"/></g></svg>